<?xml version="1.0" encoding="UTF-8" standalone="no"?>
<!DOCTYPE svg PUBLIC "-//W3C//DTD SVG 1.1//EN"
 "http://www.w3.org/Graphics/SVG/1.1/DTD/svg11.dtd">
<!-- Generated by graphviz version 5.0.0 (20220707.1540)
 -->
<!-- Title: dependencies Pages: 1 -->
<svg width="605pt" height="247pt"
 viewBox="0.00 0.00 605.00 246.80" xmlns="http://www.w3.org/2000/svg" xmlns:xlink="http://www.w3.org/1999/xlink">
<g id="graph0" class="graph" transform="scale(1 1) rotate(0) translate(4 242.8)">
<title>dependencies</title>
<polygon fill="white" stroke="transparent" points="-4,4 -4,-242.8 601,-242.8 601,4 -4,4"/>
<text text-anchor="middle" x="298.5" y="-8.2" font-family="sans-serif" font-size="14.00">dependencies</text>
<g id="clust1" class="cluster">
<title>cluster_AppModule</title>
<polygon fill="none" stroke="black" stroke-dasharray="1,5" points="8,-32.8 8,-230.8 589,-230.8 589,-32.8 8,-32.8"/>
</g>
<g id="clust2" class="cluster">
<title>cluster_AppModule_declarations</title>
<polygon fill="none" stroke="black" points="168,-40.8 168,-92.8 581,-92.8 581,-40.8 168,-40.8"/>
</g>
<g id="clust6" class="cluster">
<title>cluster_AppModule_imports</title>
<polygon fill="none" stroke="black" points="16,-40.8 16,-92.8 160,-92.8 160,-40.8 16,-40.8"/>
</g>
<g id="clust8" class="cluster">
<title>cluster_AppModule_bootstrap</title>
<polygon fill="none" stroke="black" points="257,-170.8 257,-222.8 381,-222.8 381,-170.8 257,-170.8"/>
</g>
<!-- AppComponent -->
<g id="node1" class="node">
<title>AppComponent</title>
<polygon fill="#ffffb3" stroke="black" points="572.94,-84.8 467.06,-84.8 467.06,-48.8 572.94,-48.8 572.94,-84.8"/>
<text text-anchor="middle" x="520" y="-62.6" font-family="Times,serif" font-size="14.00">AppComponent</text>
</g>
<!-- AppModule -->
<g id="node4" class="node">
<title>AppModule</title>
<polygon fill="#8dd3c7" stroke="black" points="360.66,-149.8 357.66,-153.8 336.66,-153.8 333.66,-149.8 277.34,-149.8 277.34,-113.8 360.66,-113.8 360.66,-149.8"/>
<text text-anchor="middle" x="319" y="-127.6" font-family="Times,serif" font-size="14.00">AppModule</text>
</g>
<!-- AppComponent&#45;&gt;AppModule -->
<g id="edge1" class="edge">
<title>AppComponent&#45;&gt;AppModule</title>
<path fill="none" stroke="black" d="M520,-84.91C520,-104.14 520,-131.8 520,-131.8 520,-131.8 371.14,-131.8 371.14,-131.8"/>
<polygon fill="black" stroke="black" points="371.14,-128.3 361.14,-131.8 371.14,-135.3 371.14,-128.3"/>
</g>
<!-- LoginComponent -->
<g id="node2" class="node">
<title>LoginComponent</title>
<polygon fill="#ffffb3" stroke="black" points="449.27,-84.8 334.73,-84.8 334.73,-48.8 449.27,-48.8 449.27,-84.8"/>
<text text-anchor="middle" x="392" y="-62.6" font-family="Times,serif" font-size="14.00">LoginComponent</text>
</g>
<!-- LoginComponent&#45;&gt;AppModule -->
<g id="edge2" class="edge">
<title>LoginComponent&#45;&gt;AppModule</title>
<path fill="none" stroke="black" d="M347.72,-84.91C347.72,-84.91 347.72,-103.79 347.72,-103.79"/>
<polygon fill="black" stroke="black" points="344.22,-103.79 347.72,-113.79 351.22,-103.79 344.22,-103.79"/>
</g>
<!-- OperacoesComponent -->
<g id="node3" class="node">
<title>OperacoesComponent</title>
<polygon fill="#ffffb3" stroke="black" points="316.41,-84.8 175.59,-84.8 175.59,-48.8 316.41,-48.8 316.41,-84.8"/>
<text text-anchor="middle" x="246" y="-62.6" font-family="Times,serif" font-size="14.00">OperacoesComponent</text>
</g>
<!-- OperacoesComponent&#45;&gt;AppModule -->
<g id="edge3" class="edge">
<title>OperacoesComponent&#45;&gt;AppModule</title>
<path fill="none" stroke="black" d="M296.69,-84.91C296.69,-84.91 296.69,-103.79 296.69,-103.79"/>
<polygon fill="black" stroke="black" points="293.19,-103.79 296.69,-113.79 300.19,-103.79 293.19,-103.79"/>
</g>
<!-- AppComponent  -->
<g id="node6" class="node">
<title>AppComponent </title>
<polygon fill="#80b1d3" stroke="black" points="373.44,-214.8 264.56,-214.8 264.56,-178.8 373.44,-178.8 373.44,-214.8"/>
<text text-anchor="middle" x="319" y="-192.6" font-family="Times,serif" font-size="14.00">AppComponent </text>
</g>
<!-- AppModule&#45;&gt;AppComponent  -->
<g id="edge5" class="edge">
<title>AppModule&#45;&gt;AppComponent </title>
<path fill="none" stroke="black" stroke-dasharray="1,5" d="M319,-149.91C319,-149.91 319,-168.79 319,-168.79"/>
<polygon fill="black" stroke="black" points="315.5,-168.79 319,-178.79 322.5,-168.79 315.5,-168.79"/>
</g>
<!-- AppRoutingModule -->
<g id="node5" class="node">
<title>AppRoutingModule</title>
<polygon fill="#8dd3c7" stroke="black" points="152.28,-84.8 149.28,-88.8 128.28,-88.8 125.28,-84.8 23.72,-84.8 23.72,-48.8 152.28,-48.8 152.28,-84.8"/>
<text text-anchor="middle" x="88" y="-62.6" font-family="Times,serif" font-size="14.00">AppRoutingModule</text>
</g>
<!-- AppRoutingModule&#45;&gt;AppModule -->
<g id="edge4" class="edge">
<title>AppRoutingModule&#45;&gt;AppModule</title>
<path fill="none" stroke="black" d="M88,-84.91C88,-104.14 88,-131.8 88,-131.8 88,-131.8 267.17,-131.8 267.17,-131.8"/>
<polygon fill="black" stroke="black" points="267.17,-135.3 277.17,-131.8 267.17,-128.3 267.17,-135.3"/>
</g>
</g>
</svg>
